<?xml version="1.0" standalone="no"?>
<!DOCTYPE svg PUBLIC "-//W3C//DTD SVG 20010904//EN"
 "http://www.w3.org/TR/2001/REC-SVG-20010904/DTD/svg10.dtd">
<svg version="1.0" xmlns="http://www.w3.org/2000/svg"
 width="180.000000pt" height="180.000000pt" viewBox="0 0 180.000000 180.000000"
 preserveAspectRatio="xMidYMid meet">
<metadata>
Created by potrace 1.16, written by Peter Selinger 2001-2019
</metadata>
<g transform="translate(0.000000,180.000000) scale(0.100000,-0.100000)"
fill="#000000" stroke="none">
<path d="M743 1786 c-351 -67 -621 -317 -714 -661 -32 -115 -32 -335 0 -450
86 -318 328 -560 646 -646 65 -18 107 -22 225 -22 118 0 160 4 225 22 318 86
560 328 646 646 18 65 22 107 22 225 0 118 -4 160 -22 225 -86 318 -332 564
-646 645 -103 27 -284 35 -382 16z m192 -581 l0 -90 -232 -3 -233 -2 0 -185 0
-185 233 -2 232 -3 0 -90 0 -90 -280 -3 c-154 -1 -291 0 -303 3 -13 3 -35 18
-48 32 l-24 26 0 311 c0 280 2 313 18 332 34 42 45 44 347 41 l290 -2 0 -90z
m293 -187 l2 -277 138 -3 137 -3 0 -90 0 -90 -185 -3 c-102 -1 -196 0 -208 3
-13 3 -35 18 -48 32 l-24 26 0 344 0 344 93 -3 92 -3 3 -277z"/>
</g>
</svg>
